<svg xmlns="http://www.w3.org/2000/svg" width="179.921" height="199" viewBox="0 0 179.921 199">
  <g id="coronavirus" transform="translate(-39 -16)">
    <path id="Path_12472" data-name="Path 12472" d="M216.848,148.414l-.079.008-5.978.6c-.224.025-.444.037-.667.05l-1.65.075a8.063,8.063,0,0,0-7.011,4.813l-.419.962a12.493,12.493,0,0,1-11.438,7.479h-7.023a6.721,6.721,0,0,1-6.687-6.06l-.282-2.812a8.008,8.008,0,0,0-3.623-5.929,7.5,7.5,0,0,1-3.424-6.293v-2.819a8.976,8.976,0,0,1,3.03-6.724l12-10.609a8.34,8.34,0,0,0,2.458-8.677,8.591,8.591,0,0,0-7.168-6.04l-1.211-.149a9.37,9.37,0,0,1-5.916-3.134,6.83,6.83,0,0,1-.788-7.873l7.889-13.524.008-.008c-14.954-9.54-33.241-15.879-50.795-15.879-2.309,0-4.871.145-7.388.365v.008L131.958,82.5a12.471,12.471,0,0,1-.373,14.709l-2.948,3.835a9.236,9.236,0,0,1-8.487,3.524l-3.346-.427a9.654,9.654,0,0,0-9.548,4.689,9.325,9.325,0,0,1-9.22,4.531l-7.728-.983a10.116,10.116,0,0,0-9.652,4.366,8.672,8.672,0,0,0-.145,9.494l5.108,8.068A7.871,7.871,0,0,0,96,137.042l5.257-2.819c3.756-2.015,9.743-1.7,13.4.489h0l24.3,15.924,2.807,3.847c.3.423.626.837.966,1.235l6.385,7.521a5.739,5.739,0,0,1-.875,8.258l-9.681,7.438a13.191,13.191,0,0,0-4.556,6.559l-3.221,10.472a9.067,9.067,0,0,1-1.687,3.113l-3.138,3.777a15.961,15.961,0,0,0-3.594,8.553,7.421,7.421,0,0,1-4.519,6.094,4.944,4.944,0,0,1-6.8-3.756L108.086,196a11.2,11.2,0,0,0-2.148-4.971L95.11,176.813a15.091,15.091,0,0,1-2.537-5.116L89,158.791a11.058,11.058,0,0,0-7.749-7.724l-.775-.211a12.467,12.467,0,0,1-5.257-2.948l-6.667-6.281a17.553,17.553,0,0,1-3.147-3.972,12.362,12.362,0,0,0-13.076-5.924L41.371,135.3l-.017,0a89.022,89.022,0,1,0,175.8,19.738c0-2.036-.108-4.27-.3-6.617Z" transform="translate(0 -29.195)" fill="#04b2d9"/>
    <path id="Path_12473" data-name="Path 12473" d="M393.816,141.437l0,0-14.743-23.308,0,0a94.835,94.835,0,0,0-17.243-13.951l-.008.008-7.89,13.524a6.83,6.83,0,0,0,.788,7.873,9.369,9.369,0,0,0,5.916,3.134l1.211.149a8.591,8.591,0,0,1,7.168,6.04,8.34,8.34,0,0,1-2.458,8.677l-12,10.609a8.976,8.976,0,0,0-3.031,6.725v2.819a7.5,7.5,0,0,0,3.424,6.293,8.008,8.008,0,0,1,3.624,5.929l.282,2.811a6.721,6.721,0,0,0,6.687,6.061h7.023A12.493,12.493,0,0,0,384,177.344l.419-.962a8.063,8.063,0,0,1,7.011-4.813l1.65-.075c.224-.012.444-.025.667-.05l5.978-.6.079-.008C398.977,160.956,396.56,149.057,393.816,141.437Z" transform="translate(-182.954 -51.616)" fill="#2373a3"/>
    <path id="Path_12474" data-name="Path 12474" d="M152.443,163.754l-6.385-7.521c-.34-.4-.663-.813-.966-1.235l-2.807-3.847-24.3-15.924h0c-3.657-2.193-9.643-2.5-13.4-.489l-5.257,2.819a7.871,7.871,0,0,1-10.377-2.732l-5.108-8.068a8.672,8.672,0,0,1,.145-9.494,10.116,10.116,0,0,1,9.652-4.366l7.728.983a9.325,9.325,0,0,0,9.22-4.531,9.654,9.654,0,0,1,9.548-4.689l3.346.427a9.236,9.236,0,0,0,8.487-3.524l2.948-3.835a12.471,12.471,0,0,0,.373-14.709l-11.273-16.26V66.75c-2.1.187-4.162.427-6.016.688l-.05-.017L92.672,75.009A114.545,114.545,0,0,0,75.426,86.14L53.983,110.986l-.029.021a99.594,99.594,0,0,0-9.274,24.8l.017,0,10.957-3.565A12.362,12.362,0,0,1,68.73,138.17a17.554,17.554,0,0,0,3.147,3.972l6.666,6.281a12.467,12.467,0,0,0,5.257,2.948l.775.211a11.058,11.058,0,0,1,7.749,7.724L95.9,172.212a15.091,15.091,0,0,0,2.537,5.116l10.829,14.212a11.2,11.2,0,0,1,2.148,4.971l2.956,17.752a4.944,4.944,0,0,0,6.8,3.756,7.421,7.421,0,0,0,4.519-6.094,15.962,15.962,0,0,1,3.594-8.553l3.138-3.777a9.067,9.067,0,0,0,1.687-3.114l3.221-10.472a13.191,13.191,0,0,1,4.556-6.559l9.681-7.438a5.739,5.739,0,0,0,.875-8.259Z" transform="translate(-3.325 -29.71)" fill="#2373a3"/>
    <path id="Path_12475" data-name="Path 12475" d="M51.438,247.7a88.835,88.835,0,0,1,2.355-19.738q.439-1.907.954-3.793h-.029a12.328,12.328,0,0,0-2.388.232L41.371,227.97l-.017,0a88.6,88.6,0,0,0,86.718,108.9c2.091,0,4.164-.078,6.219-.22A89.128,89.128,0,0,1,51.438,247.7Z" transform="translate(0 -121.867)" fill="#1ba4c3"/>
    <path id="Path_12476" data-name="Path 12476" d="M55.654,132.246a12.329,12.329,0,0,1,2.388-.232h.029a98.6,98.6,0,0,1,8.321-21.007l.029-.021L87.863,86.14A114.547,114.547,0,0,1,105.11,75.008l20.381-6.118-1.48-2.133V66.75c-2.1.187-4.162.427-6.016.688l-.05-.017L92.672,75.009A114.546,114.546,0,0,0,75.426,86.14L53.983,110.986l-.029.021a99.594,99.594,0,0,0-9.274,24.8l.017,0Z" transform="translate(-3.325 -29.71)" fill="#195f89"/>
    <path id="Path_12477" data-name="Path 12477" d="M152.471,45.3l-2.255-3.018a16.761,16.761,0,0,1-3.366-10.962C147.376,23.2,153.843,16,162.752,16s15.377,7.2,15.9,15.319a15.734,15.734,0,0,1-.912,6.393,17.264,17.264,0,0,1-2.454,4.569L162.752,59.05Z" transform="translate(-63.124)" fill="#ff8564"/>
    <path id="Path_12478" data-name="Path 12478" d="M81.317,112.739A16.509,16.509,0,0,1,77.955,123.7L65.413,140.47,56.8,128.941,52.876,123.7a16.791,16.791,0,0,1-3.366-10.957c.531-8.122,6.994-15.319,15.9-15.319a15.582,15.582,0,0,1,12.827,6.675A16.878,16.878,0,0,1,81.317,112.739Z" transform="translate(-6.14 -47.665)" fill="#ff8564"/>
    <ellipse id="Ellipse_172" data-name="Ellipse 172" cx="8.312" cy="8.317" rx="8.312" ry="8.317" transform="translate(90.794 23.562)" fill="#d4e1f4"/>
    <path id="Path_12479" data-name="Path 12479" d="M74.9,115.65a8.319,8.319,0,1,1-8.312,8.321A8.319,8.319,0,0,1,74.9,115.65Z" transform="translate(-16.152 -58.337)" fill="#d4e1f4"/>
    <path id="Path_12480" data-name="Path 12480" d="M252.817,208.406a16.509,16.509,0,0,1-3.362,10.957l-12.541,16.774-8.615-11.53-3.922-5.244a16.791,16.791,0,0,1-3.366-10.957c.531-8.122,6.994-15.319,15.9-15.319a15.582,15.582,0,0,1,12.827,6.675,16.878,16.878,0,0,1,3.076,8.644Z" transform="translate(-106.539 -103.67)" fill="#ff8564"/>
    <path id="Path_12481" data-name="Path 12481" d="M246.912,211.75a8.319,8.319,0,1,1-8.312,8.316,8.319,8.319,0,0,1,8.312-8.316Z" transform="translate(-116.849 -114.595)" fill="#d4e1f4"/>
    <path id="Path_12482" data-name="Path 12482" d="M436.789,138.2a13.3,13.3,0,0,1-2.7,8.81l-5.34,7.135L424,160.491l-10.078-13.478A13.192,13.192,0,0,1,414,130.84a12.5,12.5,0,0,1,10-4.95A12.958,12.958,0,0,1,436.789,138.2Zm-6.521.452a6.683,6.683,0,1,0-6.683,6.683A6.683,6.683,0,0,0,430.268,138.655Z" transform="translate(-217.889 -64.331)" fill="#ff8564"/>
    <path id="Path_12483" data-name="Path 12483" d="M431.643,140.55a6.685,6.685,0,1,1-6.683,6.687A6.685,6.685,0,0,1,431.643,140.55Z" transform="translate(-225.947 -72.914)" fill="#d4e1f4"/>
  </g>
</svg>
