<svg xmlns="http://www.w3.org/2000/svg" width="99.973" height="99.979" viewBox="0 0 99.973 99.979"><defs><style>.a{fill:#2e4f78;}.b{fill:#1d83d4;}.c{fill:#375e8d;}.d{fill:#1667b7;}.e{fill:#ffd455;}.f{fill:#ffc107;}</style></defs><g transform="translate(-24 -24)"><path class="a" d="M196.268,356.2a12.583,12.583,0,0,0,12.237-9.653L214.862,320H198.9a12.584,12.584,0,0,0-12.241,9.669L184.027,340.7a12.584,12.584,0,0,0,12.241,15.5Zm-5.534-13.9,2.627-11.032A5.669,5.669,0,0,1,198.9,326.9h7.227L201.8,344.941a5.689,5.689,0,0,1-11.066-2.642Z" transform="translate(-125.277 -232.22)"/><path class="b" d="M290.013,80.885,305.387,24A15.363,15.363,0,0,1,316.93,42.836l-9.819,38.049h-8.619l-1.674,6.9h-8.669S289.873,80.885,290.013,80.885Z" transform="translate(-207.232)"/><path class="c" d="M374.114,340.7l-2.627-11.032A12.584,12.584,0,0,0,359.246,320H343.278l6.356,26.546a12.584,12.584,0,0,0,24.479-5.845Zm-7.777,6.44a5.689,5.689,0,0,1-10-2.2L352.019,326.9h7.227a5.669,5.669,0,0,1,5.534,4.371l2.627,11.032A5.656,5.656,0,0,1,366.336,347.142Z" transform="translate(-250.482 -232.22)"/><path class="d" d="M275.083,80.885,259.708,24a15.363,15.363,0,0,0-11.543,18.836l9.819,38.049H266.6l1.674,6.9h8.669S275.222,80.885,275.083,80.885Z" transform="translate(-175.482)"/><circle class="e" cx="3.448" cy="3.448" r="3.448" transform="translate(85.95 68.818)"/><path class="b" d="M56.752,188.066,63.587,176H39.514l6.9,12.066a18.962,18.962,0,0,0-18.962,18.962v25.857l-2.781,4.171a3.969,3.969,0,0,0,3.3,6.171H75.191a3.969,3.969,0,0,0,3.3-6.171l-2.114-3.171a3.97,3.97,0,0,1-.667-2.2V207.028A18.962,18.962,0,0,0,56.752,188.066Z" transform="translate(0 -119.248)"/><path class="e" d="M67.154,291.018v6.9H70.6v-6.9a10.263,10.263,0,0,1,3.113-7.387L71.3,281.167a13.685,13.685,0,0,0-4.147,9.851Z" transform="translate(-33.855 -201.755)"/><path class="e" d="M104.052,264.16a13.694,13.694,0,0,0-3.943,1.459l1.677,3.012a10.257,10.257,0,0,1,2.952-1.092Z" transform="translate(-59.71 -188.412)"/><path class="f" d="M122.343,301.79v-6.9a3.452,3.452,0,0,1,3.448,3.448h3.448a6.9,6.9,0,0,0-6.9-6.9V288H118.9v3.448a6.9,6.9,0,1,0,0,13.79v6.9a3.452,3.452,0,0,1-3.448-3.448H112a6.9,6.9,0,0,0,6.9,6.9v3.448h3.448V315.58a6.9,6.9,0,0,0,0-13.79Zm-6.9-3.448A3.452,3.452,0,0,1,118.9,294.9v6.9A3.452,3.452,0,0,1,115.448,298.343Zm6.9,13.79v-6.9a3.448,3.448,0,0,1,0,6.9Z" transform="translate(-69.038 -207.115)"/></g></svg>