<svg xmlns="http://www.w3.org/2000/svg" width="458.886" height="419.255" viewBox="0 0 458.886 419.255"><defs><style>.a{fill:#3c8f7c;}.b{fill:#f7a491;}.c{fill:#355389;}.d{fill:#466eb6;}.e{fill:#13375b;}.f{fill:#96d9c9;}.g{fill:#f47458;}.h{fill:#fff;}.i{fill:#9bc1f9;}.j{fill:#f48c7f;}.k{fill:#b75742;}.l{fill:#f7cc7f;}.m{fill:#60bda6;}.n{fill:#fbe4bb;}.o{fill:#c1e9df;}.p{fill:#184655;}</style></defs><g transform="translate(-732.123 -638.538)"><rect class="a" width="458.886" height="21.705" transform="translate(1191.009 1057.793) rotate(180)"/><g transform="translate(826.725 717.592)"><g transform="translate(66.229 284.908)"><path class="b" d="M1029.613,1297.16c-.345-2.487.432-6.768,2.374-13.463-3.846.009-7.079-1.7-11.011-1.64-1.073,6.3-2.736,16.636-2.736,16.636l-.178,8.174,27.369.206s-.228.118-8.3-5C1036.537,1301.7,1029.948,1299.565,1029.613,1297.16Z" transform="translate(-1017.171 -1282.055)"/><path class="a" d="M1017.247,1321.648H1045.5c1.044-.1,1.3-.951.937-1.477-.746-1.085-6.256-3.691-9.961-5.42-6.5.685-17.92-2-18.946-3.507C1015.748,1316.245,1016.666,1321.519,1017.247,1321.648Z" transform="translate(-1016.487 -1294.735)"/></g><g transform="translate(32.134 285.453)"><path class="b" d="M969.331,1297.578c-.347-2.487-.935-5.6-.072-13.9-3.846.009-7.506-.715-11.437-.656,0,6.478.135,16.09.135,16.09l-.177,8.173,27.369.207s-.228.118-8.3-5C976.256,1302.118,969.666,1299.983,969.331,1297.578Z" transform="translate(-956.889 -1283.019)"/><path class="a" d="M956.964,1321.648h28.254c1.045-.1,1.3-.951.937-1.477-.747-1.085-6.257-3.691-9.961-5.42-6.5.685-17.921-2-18.946-3.507C955.467,1316.245,956.383,1321.519,956.964,1321.648Z" transform="translate(-956.205 -1295.281)"/></g><path class="b" d="M1013.371,851.448l10.294-10.894s11.02,6.078,23.866,11.886c3.531-6.165,9.295-26.444,9.6-27.411s-6.751-13.152-5.172-13.458,3.631,6.505,5.3,5.815,5.963-16.49,6.967-15.629c1.881,1.614-2.257,9.828-1.266,10.426s3.505-9.1,5.419-8.691-3.232,8.834-2.668,9.643,5.943-7.09,7.055-5.26c.6.993-4.961,6.879-3.817,7.537s6.16-3.048,6.759-1.848-4.68,2.452-6.145,5.491-4.13,4.222-5.014,9.967-3.3,36.451-9.542,38.917C1049.562,870.093,1013.371,851.448,1013.371,851.448Z" transform="translate(-948.905 -788.483)"/><path class="c" d="M1005.684,993.529l-8.349,4.67-16.97,26.025,30.349,71.645s-3.419,10.774-4.532,16.156c-1.165,5.633-4.022,53.971-4.022,53.971l12.946.219s12.3-51.46,14.381-68.163c2.529-20.283-12.869-68.588-12.869-68.588-2.872-9.856-9.063-30.131-9.063-30.131S1006.039,994.393,1005.684,993.529Z" transform="translate(-934.566 -871.806)"/><path class="d" d="M960.484,976.246a24.582,24.582,0,0,1-2.59,13.105c-2.1,4.257-5.74,7.595-8.344,12.809-4.927,9.868-7.6,23.885-5.754,32.9,0,0,10.187,39.015,9.782,53.274-.149,5.259-1.948,14.732-3.1,21.137-1.018,5.661-1.362,48.367-1.362,48.367l14.458-.437,11.071-68.891,4.682-61.237,10.212-41.246Z" transform="translate(-918.425 -864.298)"/><path class="e" d="M973.59,799.247c-1.335-6.324-2.713-12.671-8.979-17.226-5.07-3.686-10.518-4.739-16.295-2.638-16.365,5.953-7.563,18.979-27.872,32.864-6.311,4.314-8.706,5.819-13.235,11.567-6.339,8.047-9.8,18.844-6.618,27.733,6.589,18.383,27.009,23.693,37.691,19.8,19.882-7.254,36.445-32.544,37.547-39.445C977.008,824.51,974.45,803.318,973.59,799.247Z" transform="translate(-899.389 -778.312)"/><path class="f" d="M984.221,884.4c4.608,2.136,12.952,5.343,12.952,5.343l4.747-15.059c-26.832-15.309-24.727-12.838-44.865-12.538-16.088.23-22.83-2.851-36.685,34.66,0,0,10.547,4.752,14.322,6.277,1.624-4.637,4.559-13.885,6.271-8.612a153.846,153.846,0,0,1,5.748,24.283c.807,4.907,2.561,11.189,1.639,16.188a149.133,149.133,0,0,0,19.325,2.631.361.361,0,0,0,.073,0,65.376,65.376,0,0,0,11.873-1.259s1.64-34.8,2.517-36.248c.971-1.608,5.071-6.8,1.582-14.571C983.1,884.119,983.271,883.957,984.221,884.4Z" transform="translate(-908.504 -814.589)"/><path class="b" d="M987.684,833.166s-1.283,10.378-2.037,13.979c-.791,3.77-1.98,15.642,5.815,17.569s5.385-12.917,5.513-16.75,2.338-17.2,2.338-17.2Z" transform="translate(-936.611 -801.099)"/><path class="g" d="M988.94,836.477c.08.048.153.1.234.146,4.308,2.477,8.057,2.086,10.871.158.5-3.317.948-6.015.948-6.015l-11.629,2.4S989.193,834.549,988.94,836.477Z" transform="translate(-938.291 -801.099)"/><path class="b" d="M986.838,787.03a13.339,13.339,0,0,0-7.2,5.837c-2.634,4.549-3.947,17.614,5.748,23.188s16.575-3.357,16.281-11.713S999.052,784.933,986.838,787.03Z" transform="translate(-933.422 -781.987)"/><path class="b" d="M1020.353,808.565c.108,2.172-.819,3.983-2.069,4.047s-2.351-1.646-2.459-3.817.818-3.984,2.069-4.047S1020.245,806.393,1020.353,808.565Z" transform="translate(-949.968 -789.795)"/><path class="e" d="M984.679,786.621s-5.226,13.664-10.341,15.121-4.706,8.178-4.706,8.178-.655-15.536,4.016-19.345S984.679,786.621,984.679,786.621Z" transform="translate(-929.89 -781.922)"/><path class="b" d="M977.6,815.768c.788,2.136.271,4.305-1.155,4.844s-3.224-.755-4.012-2.891-.271-4.3,1.156-4.844S976.813,813.633,977.6,815.768Z" transform="translate(-930.961 -793.275)"/><path class="b" d="M959.4,972.176c.19.026,1.044-.087,1.744-.07a13.377,13.377,0,0,1,1.812.165,5.127,5.127,0,0,1,1.1-.667c.3-.138.795-.19,1.13-.346s.639-.459.967-.606c.855-.372,1.64-.459,1.9-.009.215.372-4.54,3.29-4.54,3.29-4.4.026-9.012,2.277-19.214-4.4-5.826-2.554-34.12-16.57-34.689-19.625-.32-1.714,4.021-14.986,7.57-25.063,2.736,1.229,8.554,3.827,11.807,5.194-2.986,6.346-6.507,14.76-6.137,15.79.1.269.449.753,19.577,13.316.483.312.975.64,1.476.969q2.02,1.325,4.316,2.822l5.455-.572s8.641.6,8.9,1.584c.112.45-.6.675-1.485.8h-.026l-.388.052h-.018c-.949.112-1.951.129-2.192.216a5.677,5.677,0,0,0-1.3.641c5.387,2.208,4.972,1.42,6.758,1.307.449-.034.924.1,1.347.061.725-.061,1.3-.493,1.864-.528a2.425,2.425,0,0,1,1.632.494c.19.19-.165.467-.855.779-4.16,1.809-7.6,1.117-8.709,1.385-.742.182.613.459,2.728.234a11.142,11.142,0,0,0,1.916-.026c.466-.1.89-.407,1.347-.52.423-.1.855-.095,1.209-.164.466-.087,1.113-.441,1.485-.485a3.519,3.519,0,0,1,2.21.216c.319.286-5.956,2.7-5.956,2.7s-4.324.623-5.291.623C958.847,971.743,958.269,972,959.4,972.176Z" transform="translate(-903.823 -841.97)"/><rect class="h" width="14.633" height="7.12" transform="translate(37.479 69.401) rotate(-4.417)"/></g><path class="c" d="M996.287,1217.569h144.728l37.381-161.275H996.287Z" transform="translate(-114.758 -181.481)"/><rect class="d" width="105.24" height="161.274" transform="translate(881.902 1036.088) rotate(180)"/><rect class="i" width="325.132" height="5.835" transform="translate(1084.297 874.813) rotate(180)"/><g transform="translate(1013.48 717.984)"><path class="e" d="M1275.112,812.273a48.254,48.254,0,0,1,4.408-23.255c3.068-6.382,10.657-10,17.578-10.013,21.977-.029,24.771,29.008,38.761,40.209,4.274,3.422,9.052,6.209,13.1,9.9,14.936,13.628,8.208,38.856-5.507,50.8-9.517,8.292-24.474,13-36.2,6.52-6.123-3.383-10.771-9.006-14.082-15.169-4.7-8.745-7.729-18.835-11.072-28.156C1278.532,833.192,1275.551,822.864,1275.112,812.273Z" transform="translate(-1249.341 -779.005)"/><g transform="translate(0 77.683)"><path class="j" d="M1230.951,1014.249s1.314-1.639,1.707-2.218c.464-.679,1.692-2.818,1.692-2.818s3.93-7.652,3.341-7.9-2,.691-2.4,1.079-.923.8-1.332,1.188a1.1,1.1,0,0,1-1.551-.071c-.517-.474.775-2.371,1.352-2.937,1.8-1.767,7.559-5.518,8.151-5.942.7-.5,5.075-15.029,6.969-19.888h0c2.865-8.046,5.4-16.459,5.7-17.313l1.8-36.529,13.646-4.548s-1.432,40.568-1.735,42.589c-.145.962-8.226,19.095-8.235,19.092-4.542,8.678-8.566,16.313-9.3,17.8,0,0-.99,5.041-1.432,8.287s-2.152,6.058-2.416,6.95a21.151,21.151,0,0,1-3.033,6.492c-1.942,2.789-1.381-.767-1.381-.767s2.666-5.829,2.171-5.967c-.382-.106-1.65,3.166-3.766,6.275-.543.8-1.083,1.586-1.585,2.3-1.316,1.887-2.854,1.6-1.791-.6a22.885,22.885,0,0,1,1.625-2.891,18.882,18.882,0,0,0,1.364-2.8,24.929,24.929,0,0,0,1.387-2.9c-.116,0-.183-.453-.787.377-.726,1-1.8,3.468-2.979,4.851-.67.784-1.97,2.51-1.97,2.51a21.614,21.614,0,0,1-2.593,2.461c-.974-.553.228-2.889,1.278-3.833a15.319,15.319,0,0,1,1.776-2.726s2.062-4.25,1.464-4.559c-.49-.255-7.39,8.942-8.328,8.318C1229,1017.11,1230.951,1014.249,1230.951,1014.249Z" transform="translate(-1229.587 -916.355)"/></g><path class="b" d="M1388.749,1291.388s1.548,10.718,4.212,14.176a27.427,27.427,0,0,1,3.6,4.727c1.669,3.266.746,8.128-.485,10.806-.632,1.375.045,1.37-1.4,1.813a8.843,8.843,0,0,1-10.607-4.969,25.19,25.19,0,0,1-2.08-9.133c-.455-9.732-3.488-14.68-3.488-14.68Z" transform="translate(-1294.28 -1001.593)"/><path class="b" d="M1293.175,1301.994s-.956,12.086-.18,16.014c.415,2.1,2.729,6.432,1.668,8.411s-2.325,1.656-2.325,1.656l-26.241.487c-1.5.024-1.725-.164-.517-1.051,1.978-1.452,3.573-2.411,9.89-5.46.412-.2,1.912-1.152,2.452-1.481a18.985,18.985,0,0,0,3.936-3.47c1.975-2.194,2.148-12.837,2.148-12.837Z" transform="translate(-1244.887 -1006.201)"/><path class="k" d="M1274.7,1013.685s-3.464,19.623-1.191,32.487,13.192,132.109,13.192,132.109l12.131.683s2.542-49.812,2.087-56.738-4.054-18.519-4.054-18.519l1.207-40.217-15.309-52.835Z" transform="translate(-1248.332 -879.638)"/><path class="g" d="M1313.045,1005.294s9.553,14.349,11.827,26.224-1.669,48.37,2.706,63.931c2.368,8.424,11.344,21.432,12.709,32.318s6.718,39.4,6.718,39.4l-12.126,2.4-28.18-71.21-22.105-64.365-5.663-33.148Z" transform="translate(-1251.023 -875.375)"/><path class="l" d="M1303.411,864.335s12.648-.8,17.652,4.639-11.1,48.5-12.009,55.424,4.638,25.346,4.638,25.346-29.711,5.966-38.2.359c0,0-1.56-50.294-.65-55.242s9.141-24.588,10.961-26.568S1303.411,864.335,1303.411,864.335Z" transform="translate(-1249.122 -816.056)"/><path class="b" d="M1309.445,834.33s.066.372.183,1c.563,3.035,2.736,13.1,4.2,15.869,1.772,3.344-6.069,14.011-13.617,12.709-2.248-.387,1.9-9.8,1.7-10.8-.381-1.909-.9-4.512-1.428-7.182-.3-1.506-.6-3.033-.885-4.469-.808-4.079-1.465-7.415-1.465-7.415Z" transform="translate(-1259.366 -802.917)"/><path class="g" d="M1309.628,835.335c-.117-.632-.183-1-.183-1l-11.31-.281s.657,3.336,1.465,7.415l.88,4.444a10.605,10.605,0,0,0,5.4-2.7,14.237,14.237,0,0,0,4.09-6.072C1309.831,836.42,1309.715,835.805,1309.628,835.335Z" transform="translate(-1259.366 -802.917)"/><path class="b" d="M1296.227,789.159a10.207,10.207,0,0,1,8.673,3.7c3.342,4.314,6.943,17.653-1.357,24.9s-16.5-.957-17.719-9.66S1284.134,788.845,1296.227,789.159Z" transform="translate(-1253.761 -783.403)"/><path class="b" d="M1281.391,818.794c.991,1.922,2.654,2.987,3.715,2.378s1.117-2.662.126-4.583-2.654-2.987-3.713-2.378S1280.4,816.871,1281.391,818.794Z" transform="translate(-1251.785 -794.224)"/><path class="e" d="M1303.619,786.558s7.122,12.684,12.217,13.271,5.764,7.326,5.764,7.326-1.822-15.531-6.866-18.526S1303.619,786.558,1303.619,786.558Z" transform="translate(-1261.748 -782.228)"/><path class="k" d="M1386.89,1330.291c6.609,1.2,11.006-2.656,13.294-5.544,1.68,3.272,2.5,8.154,1.264,10.843-1.088,2.367-4.269,2.3-6.772,2.392a6.54,6.54,0,0,1-6.009-3.671A21.967,21.967,0,0,1,1386.89,1330.291Z" transform="translate(-1297.923 -1016.085)"/><path class="k" d="M1275.882,1334.364c7.275,1.863,12.653.6,15.662-.614.775,2.194,1.8,4.947,1.259,6.534-.668,1.943-1.619,2.383-2.459,2.4-6.645.175-24.342.411-29.408.478a.826.826,0,0,1-.642-1.358C1261.549,1340.31,1275.34,1334.695,1275.882,1334.364Z" transform="translate(-1242.842 -1019.996)"/><path class="b" d="M1322.775,813.011c-.415,2.253.419,4.318,1.861,4.614s2.947-1.291,3.362-3.543-.419-4.318-1.861-4.614S1323.189,810.758,1322.775,813.011Z" transform="translate(-1270.024 -792.223)"/><g transform="translate(10.727 70.943)"><g transform="translate(16.071 1.099)"><path class="a" d="M1278.013,926.454l.29-7.752c.215-5.769,3.464-10.752,7.241-11.106s8.024,4.372,9.467,10.536l1.938,8.282c.191.813,1.246.816,1.042,0l-2.061-8.311c-1.7-6.866-6.417-12.114-10.509-11.7s-7.7,5.948-8.039,12.329l-.413,7.722A.524.524,0,1,0,1278.013,926.454Z" transform="translate(-1276.969 -906.382)"/></g><path class="m" d="M1259.72,930.272l1.467-.034-3.672,50.851-8.961.064Z" transform="translate(-1248.554 -915.646)"/><path class="f" d="M1264.4,981.089h53.215l-10.042-50.7-39.5-.153Z" transform="translate(-1255.436 -915.646)"/><path class="m" d="M1292.117,1011.4l25.495,4.945H1264.4Z" transform="translate(-1255.436 -950.906)"/><g transform="translate(20.163)"><path class="a" d="M1285.247,924.51l.29-7.751c.215-5.769,3.464-10.751,7.242-11.106s8.024,4.373,9.467,10.536l1.938,8.282c.19.814,1.245.816,1.043,0l-2.061-8.311c-1.7-6.867-6.417-12.114-10.51-11.7s-7.7,5.948-8.039,12.329l-.412,7.722A.523.523,0,1,0,1285.247,924.51Z" transform="translate(-1284.204 -904.439)"/></g></g><path class="b" d="M1286.445,983.208c-.211.029-1.16-.1-1.936-.077a14.833,14.833,0,0,0-2.013.183,5.678,5.678,0,0,0-1.227-.741c-.335-.153-.883-.211-1.255-.384s-.71-.51-1.073-.674c-.949-.413-1.822-.509-2.11-.009-.24.413,5.042,3.654,5.042,3.654,4.889.028,10.008,2.529,21.34-4.885,6.471-2.836,37.9-18.4,38.529-21.8.354-1.9-4.467-16.643-8.407-27.835-3.04,1.365-9.5,4.25-13.115,5.769,3.316,7.047,7.228,16.394,6.816,17.537-.106.3-.5.837-21.743,14.788-.537.346-1.083.712-1.639,1.077q-2.243,1.472-4.792,3.134l-6.059-.635s-9.6.663-9.884,1.76c-.125.5.671.749,1.649.894h.029l.431.058h.02c1.054.125,2.166.144,2.435.24a6.292,6.292,0,0,1,1.447.711c-5.982,2.452-5.522,1.577-7.506,1.452-.5-.038-1.027.106-1.5.067-.805-.067-1.447-.548-2.071-.587a2.693,2.693,0,0,0-1.812.549c-.212.211.183.519.95.865,4.621,2.009,8.445,1.24,9.673,1.539.824.2-.681.51-3.03.259a12.411,12.411,0,0,1-2.128-.029c-.517-.116-.987-.453-1.5-.577-.47-.115-.95-.106-1.343-.183-.517-.1-1.236-.49-1.649-.538a3.9,3.9,0,0,0-2.454.24c-.355.317,6.615,3,6.615,3s4.8.692,5.875.692C1287.059,982.726,1287.7,983.015,1286.445,983.208Z" transform="translate(-1249.122 -844.879)"/><path class="l" d="M1343.742,915.889s-14.287-21.95-15.57-30.014,5.783-18.042,13-17.27,17.141,37.523,17.141,37.523Z" transform="translate(-1272.349 -817.911)"/></g><g transform="translate(1081.442 645.585)"><path class="n" d="M1391.883,651c-23.1-.271-41.966,11.015-42.132,25.206-.083,7.1,4.523,13.575,12.039,18.313l-8.392,14.183,18.693-9.4a63.679,63.679,0,0,0,19.189,3.093c23.1.271,41.965-11.014,42.132-25.205S1414.985,651.274,1391.883,651Z" transform="translate(-1349.75 -650.999)"/></g><g transform="translate(911.735 638.538)"><path class="o" d="M1095.4,638.581c-25.768.862-46.229,14.393-45.7,30.222.265,7.915,5.726,14.906,14.344,19.81L1053.19,705.42l22.58-12a71.059,71.059,0,0,0,21.549,2.483c25.769-.861,46.23-14.392,45.7-30.222S1121.171,637.72,1095.4,638.581Z" transform="translate(-1049.693 -638.538)"/></g><path class="p" d="M1169.583,986.675l-1.368,33.54h-15.742l12.476-31.714Z" transform="translate(-182.607 -151.237)"/><path class="p" d="M2.421,0h68.7a2.42,2.42,0,0,1,2.42,2.42v52.2a2.42,2.42,0,0,1-2.42,2.42H2.42A2.42,2.42,0,0,1,0,54.622V2.421A2.421,2.421,0,0,1,2.421,0Z" transform="translate(941.649 802.698)"/><path class="p" d="M2.573,0H22.98a2.572,2.572,0,0,1,2.572,2.572v6.94a2.573,2.573,0,0,1-2.573,2.573H2.573A2.573,2.573,0,0,1,0,9.512V2.573A2.573,2.573,0,0,1,2.573,0Z" transform="translate(1017.848 800.469) rotate(180)"/><rect class="p" width="2.054" height="7.529" transform="translate(1005.585 804.324) rotate(180)"/></g></svg>